<svg
  width="149"
  height="30"
  viewBox="0 0 149 30"
  fill="none"
  xmlns="http://www.w3.org/2000/svg"
>
  <g filter="url(#filter0_d_2_30)">
    <ellipse cx="18.8973" cy="15" rx="14.8973" ry="15" fill="#FF3131" />
  </g>
  <path
    d="M18.8972 3C16.5401 3 14.2359 3.70379 12.2761 5.02236C10.3162 6.34094 8.78866 8.21509 7.88663 10.4078C6.98459 12.6005 6.74858 15.0133 7.20843 17.3411C7.66829 19.6689 8.80335 21.807 10.4701 23.4853C12.1368 25.1635 14.2604 26.3064 16.5722 26.7694C18.884 27.2324 21.2803 26.9948 23.458 26.0866C25.6357 25.1783 27.497 23.6402 28.8065 21.6668C30.1161 19.6935 30.815 17.3734 30.815 15C30.8116 11.8185 29.5548 8.76826 27.3206 6.51858C25.0863 4.2689 22.057 3.00349 18.8972 3ZM18.8972 26.04C16.7287 26.04 14.6088 25.3925 12.8058 24.1794C11.0027 22.9663 9.59734 21.2421 8.76747 19.2248C7.93761 17.2075 7.72048 14.9878 8.14354 12.8462C8.5666 10.7047 9.61086 8.73751 11.1443 7.19354C12.6776 5.64957 14.6313 4.59811 16.7582 4.17213C18.8851 3.74615 21.0897 3.96478 23.0931 4.80037C25.0966 5.63596 26.809 7.05099 28.0138 8.8665C29.2186 10.682 29.8616 12.8165 29.8616 15C29.8585 17.927 28.7023 20.7332 26.6467 22.8029C24.5912 24.8727 21.8042 26.0368 18.8972 26.04Z"
    fill="white"
  />
  <g filter="url(#filter1_d_2_30)">
    <path
      d="M18.8705 14.3733V15.6067M17.2832 13.7567V16.5317M15.6959 14.6817V15.2983M14.1086 14.065V16.166M12.5213 13.14V16.84"
      stroke="white"
      stroke-linecap="round"
      stroke-linejoin="round"
      shape-rendering="crispEdges"
    />
  </g>
  <path
    d="M20.0456 5.7165C19.9731 5.94225 19.9122 6.38062 19.8948 6.7875C19.8832 6.9975 19.8977 8.07637 19.9267 9.18937C19.9992 12.069 19.9702 15.618 19.8658 16.9305C19.8281 17.4214 19.7962 17.8519 19.7962 17.8886V17.9569H19.1669C18.5056 17.9569 18.2156 17.9831 17.6472 18.0907C16.9859 18.2141 16.3334 18.4582 15.936 18.7286C15.5271 19.0095 15.0979 19.4899 14.8949 19.8967C14.3467 20.9861 14.8165 22.044 15.9679 22.3196C16.2348 22.3826 16.8844 22.3826 17.215 22.3196C18.2939 22.1096 19.2887 21.5321 19.7063 20.8706C19.9586 20.4742 20.2022 19.5581 20.3589 18.4162C20.5619 16.9567 20.6373 15.4999 20.7098 11.8275C20.7504 9.6855 20.7678 9.15262 20.7997 8.709L20.8171 8.4885L21.3507 9.13687C21.9482 9.86137 22.5079 10.6069 22.8704 11.1581C24.4394 13.5469 24.7063 15.3502 23.668 16.5499C23.5172 16.7257 23.3751 16.8596 23.0328 17.1536C22.7631 17.3872 22.7544 17.4187 22.9574 17.4187C23.2127 17.4187 23.6796 17.0696 24.1697 16.5052C24.7759 15.8149 25.3066 14.757 25.5009 13.8619C25.5792 13.5022 25.5705 12.7436 25.4864 12.3892C25.2805 11.523 24.7962 10.7224 23.9116 9.79312C23.7753 9.64875 23.262 9.15262 22.7689 8.69062C22.2788 8.22862 21.7655 7.72987 21.6291 7.58287C21.0462 6.94762 20.617 6.27562 20.4923 5.79525C20.4459 5.61412 20.4053 5.58 20.2312 5.58H20.0891L20.0456 5.7165Z"
    fill="white"
  />
  <g filter="url(#filter2_d_2_30)">
    <path
      d="M43.6408 22.14C42.3342 22.14 41.1342 21.8333 40.0408 21.22C38.9475 20.6067 38.0808 19.76 37.4408 18.68C36.8008 17.5867 36.4808 16.3533 36.4808 14.98C36.4808 13.62 36.8008 12.4 37.4408 11.32C38.0808 10.2267 38.9475 9.37333 40.0408 8.76C41.1342 8.14667 42.3342 7.84 43.6408 7.84C44.9608 7.84 46.1608 8.14667 47.2408 8.76C48.3342 9.37333 49.1942 10.2267 49.8208 11.32C50.4608 12.4 50.7808 13.62 50.7808 14.98C50.7808 16.3533 50.4608 17.5867 49.8208 18.68C49.1942 19.76 48.3342 20.6067 47.2408 21.22C46.1475 21.8333 44.9475 22.14 43.6408 22.14ZM43.6408 19.64C44.4808 19.64 45.2208 19.4533 45.8608 19.08C46.5008 18.6933 47.0008 18.1467 47.3608 17.44C47.7208 16.7333 47.9008 15.9133 47.9008 14.98C47.9008 14.0467 47.7208 13.2333 47.3608 12.54C47.0008 11.8333 46.5008 11.2933 45.8608 10.92C45.2208 10.5467 44.4808 10.36 43.6408 10.36C42.8008 10.36 42.0542 10.5467 41.4008 10.92C40.7608 11.2933 40.2608 11.8333 39.9008 12.54C39.5408 13.2333 39.3608 14.0467 39.3608 14.98C39.3608 15.9133 39.5408 16.7333 39.9008 17.44C40.2608 18.1467 40.7608 18.6933 41.4008 19.08C42.0542 19.4533 42.8008 19.64 43.6408 19.64ZM60.7439 22L55.6639 15.78V22H52.8639V8.04H55.6639V14.3L60.7439 8.04H64.1239L58.3639 14.96L64.2839 22H60.7439ZM78.6657 8.04L73.5457 22H70.1457L65.0257 8.04H68.0257L71.8657 19.14L75.6857 8.04H78.6657ZM94.61 8.04V10.3H90.89V22H88.09V10.3H84.37V8.04H94.61ZM107.713 10.92V22H104.893V20.6C104.533 21.08 104.06 21.46 103.473 21.74C102.9 22.0067 102.273 22.14 101.593 22.14C100.726 22.14 99.9597 21.96 99.293 21.6C98.6263 21.2267 98.0997 20.6867 97.713 19.98C97.3397 19.26 97.153 18.4067 97.153 17.42V10.92H99.953V17.02C99.953 17.9 100.173 18.58 100.613 19.06C101.053 19.5267 101.653 19.76 102.413 19.76C103.186 19.76 103.793 19.5267 104.233 19.06C104.673 18.58 104.893 17.9 104.893 17.02V10.92H107.713ZM116.616 10.76C117.936 10.76 119.002 11.18 119.816 12.02C120.629 12.8467 121.036 14.0067 121.036 15.5V22H118.236V15.88C118.236 15 118.016 14.3267 117.576 13.86C117.136 13.38 116.536 13.14 115.776 13.14C115.002 13.14 114.389 13.38 113.936 13.86C113.496 14.3267 113.276 15 113.276 15.88V22H110.476V10.92H113.276V12.3C113.649 11.82 114.122 11.4467 114.696 11.18C115.282 10.9 115.922 10.76 116.616 10.76ZM133.998 16.22C133.998 16.62 133.972 16.98 133.918 17.3H125.818C125.885 18.1 126.165 18.7267 126.658 19.18C127.152 19.6333 127.758 19.86 128.478 19.86C129.518 19.86 130.258 19.4133 130.698 18.52H133.718C133.398 19.5867 132.785 20.4667 131.878 21.16C130.972 21.84 129.858 22.18 128.538 22.18C127.472 22.18 126.512 21.9467 125.658 21.48C124.818 21 124.158 20.3267 123.678 19.46C123.212 18.5933 122.978 17.5933 122.978 16.46C122.978 15.3133 123.212 14.3067 123.678 13.44C124.145 12.5733 124.798 11.9067 125.638 11.44C126.478 10.9733 127.445 10.74 128.538 10.74C129.592 10.74 130.532 10.9667 131.358 11.42C132.198 11.8733 132.845 12.52 133.298 13.36C133.765 14.1867 133.998 15.14 133.998 16.22ZM131.098 15.42C131.085 14.7 130.825 14.1267 130.318 13.7C129.812 13.26 129.192 13.04 128.458 13.04C127.765 13.04 127.178 13.2533 126.698 13.68C126.232 14.0933 125.945 14.6733 125.838 15.42H131.098ZM140.282 22.18C139.375 22.18 138.562 22.02 137.842 21.7C137.122 21.3667 136.549 20.92 136.122 20.36C135.709 19.8 135.482 19.18 135.442 18.5H138.262C138.315 18.9267 138.522 19.28 138.882 19.56C139.255 19.84 139.715 19.98 140.262 19.98C140.795 19.98 141.209 19.8733 141.502 19.66C141.809 19.4467 141.962 19.1733 141.962 18.84C141.962 18.48 141.775 18.2133 141.402 18.04C141.042 17.8533 140.462 17.6533 139.662 17.44C138.835 17.24 138.155 17.0333 137.622 16.82C137.102 16.6067 136.649 16.28 136.262 15.84C135.889 15.4 135.702 14.8067 135.702 14.06C135.702 13.4467 135.875 12.8867 136.222 12.38C136.582 11.8733 137.089 11.4733 137.742 11.18C138.409 10.8867 139.189 10.74 140.082 10.74C141.402 10.74 142.455 11.0733 143.242 11.74C144.029 12.3933 144.462 13.28 144.542 14.4H141.862C141.822 13.96 141.635 13.6133 141.302 13.36C140.982 13.0933 140.549 12.96 140.002 12.96C139.495 12.96 139.102 13.0533 138.822 13.24C138.555 13.4267 138.422 13.6867 138.422 14.02C138.422 14.3933 138.609 14.68 138.982 14.88C139.355 15.0667 139.935 15.26 140.722 15.46C141.522 15.66 142.182 15.8667 142.702 16.08C143.222 16.2933 143.669 16.6267 144.042 17.08C144.429 17.52 144.629 18.1067 144.642 18.84C144.642 19.48 144.462 20.0533 144.102 20.56C143.755 21.0667 143.249 21.4667 142.582 21.76C141.929 22.04 141.162 22.18 140.282 22.18Z"
      fill="white"
    />
  </g>
  <defs>
    <filter
      id="filter0_d_2_30"
      x="0"
      y="0"
      width="37.7945"
      height="38"
      filterUnits="userSpaceOnUse"
      color-interpolation-filters="sRGB"
    >
      <feFlood flood-opacity="0" result="BackgroundImageFix" />
      <feColorMatrix
        in="SourceAlpha"
        type="matrix"
        values="0 0 0 0 0 0 0 0 0 0 0 0 0 0 0 0 0 0 127 0"
        result="hardAlpha"
      />
      <feOffset dy="4" />
      <feGaussianBlur stdDeviation="2" />
      <feComposite in2="hardAlpha" operator="out" />
      <feColorMatrix
        type="matrix"
        values="0 0 0 0 0 0 0 0 0 0 0 0 0 0 0 0 0 0 0.25 0"
      />
      <feBlend
        mode="normal"
        in2="BackgroundImageFix"
        result="effect1_dropShadow_2_30"
      />
      <feBlend
        mode="normal"
        in="SourceGraphic"
        in2="effect1_dropShadow_2_30"
        result="shape"
      />
    </filter>
    <filter
      id="filter1_d_2_30"
      x="8.02124"
      y="12.64"
      width="15.3492"
      height="12.7"
      filterUnits="userSpaceOnUse"
      color-interpolation-filters="sRGB"
    >
      <feFlood flood-opacity="0" result="BackgroundImageFix" />
      <feColorMatrix
        in="SourceAlpha"
        type="matrix"
        values="0 0 0 0 0 0 0 0 0 0 0 0 0 0 0 0 0 0 127 0"
        result="hardAlpha"
      />
      <feOffset dy="4" />
      <feGaussianBlur stdDeviation="2" />
      <feComposite in2="hardAlpha" operator="out" />
      <feColorMatrix
        type="matrix"
        values="0 0 0 0 0 0 0 0 0 0 0 0 0 0 0 0 0 0 0.25 0"
      />
      <feBlend
        mode="normal"
        in2="BackgroundImageFix"
        result="effect1_dropShadow_2_30"
      />
      <feBlend
        mode="normal"
        in="SourceGraphic"
        in2="effect1_dropShadow_2_30"
        result="shape"
      />
    </filter>
    <filter
      id="filter2_d_2_30"
      x="32.4808"
      y="7.84"
      width="116.161"
      height="22.34"
      filterUnits="userSpaceOnUse"
      color-interpolation-filters="sRGB"
    >
      <feFlood flood-opacity="0" result="BackgroundImageFix" />
      <feColorMatrix
        in="SourceAlpha"
        type="matrix"
        values="0 0 0 0 0 0 0 0 0 0 0 0 0 0 0 0 0 0 127 0"
        result="hardAlpha"
      />
      <feOffset dy="4" />
      <feGaussianBlur stdDeviation="2" />
      <feComposite in2="hardAlpha" operator="out" />
      <feColorMatrix
        type="matrix"
        values="0 0 0 0 0 0 0 0 0 0 0 0 0 0 0 0 0 0 0.25 0"
      />
      <feBlend
        mode="normal"
        in2="BackgroundImageFix"
        result="effect1_dropShadow_2_30"
      />
      <feBlend
        mode="normal"
        in="SourceGraphic"
        in2="effect1_dropShadow_2_30"
        result="shape"
      />
    </filter>
  </defs>
</svg>
