<svg width="508" height="508" viewBox="0 0 508 508" fill="none" xmlns="http://www.w3.org/2000/svg">
<g filter="url(#filter0_d_2_13)">
<circle cx="254" cy="250" r="250" fill="#FF3131"/>
</g>
<path d="M254 50C214.444 50 175.776 61.7298 142.886 83.7061C109.996 105.682 84.3617 136.918 69.2242 173.463C54.0867 210.009 50.126 250.222 57.843 289.018C65.5601 327.814 84.6082 363.451 112.579 391.421C140.549 419.392 176.186 438.44 214.982 446.157C253.778 453.874 293.991 449.913 330.537 434.776C367.082 419.638 398.318 394.004 420.294 361.114C442.27 328.224 454 289.556 454 250C453.942 196.975 432.852 146.138 395.357 108.643C357.862 71.1483 307.025 50.0582 254 50ZM254 434C217.608 434 182.034 423.209 151.775 402.99C121.517 382.772 97.9328 354.035 84.0062 320.414C70.0797 286.792 66.4359 249.796 73.5356 214.103C80.6353 178.411 98.1596 145.625 123.892 119.892C149.625 94.1595 182.411 76.6352 218.103 69.5355C253.796 62.4358 290.792 66.0796 324.414 80.0062C358.035 93.9327 386.772 117.516 406.99 147.775C427.209 178.034 438 213.608 438 250C437.947 298.784 418.544 345.554 384.049 380.049C349.554 414.544 302.784 433.947 254 434Z" fill="white"/>
<g filter="url(#filter1_d_2_13)">
<path d="M253.55 239.556V260.111M226.913 229.278V275.528M200.275 244.694V254.972M173.638 234.417V269.433M147 219V280.667" stroke="white" stroke-width="10" stroke-linecap="round" stroke-linejoin="round" shape-rendering="crispEdges"/>
</g>
<path d="M273.271 95.275C272.055 99.0375 271.033 106.344 270.741 113.125C270.546 116.625 270.789 134.606 271.276 153.156C272.493 201.15 272.006 260.3 270.254 282.175C269.621 290.356 269.086 297.531 269.086 298.144V299.281H258.524C247.428 299.281 242.561 299.719 233.021 301.513C221.924 303.569 210.974 307.638 204.306 312.144C197.443 316.825 190.24 324.831 186.833 331.613C177.634 349.769 185.519 367.4 204.841 371.994C209.319 373.044 220.221 373.044 225.769 371.994C243.875 368.494 260.568 358.869 267.577 347.844C271.811 341.238 275.9 325.969 278.528 306.938C281.935 282.613 283.2 258.331 284.417 197.125C285.098 161.425 285.39 152.544 285.926 145.15L286.218 141.475L295.173 152.281C305.199 164.356 314.592 176.781 320.676 185.969C347.007 225.781 351.484 255.838 334.061 275.831C331.53 278.763 329.145 280.994 323.402 285.894C318.875 289.788 318.729 290.313 322.136 290.313C326.419 290.313 334.255 284.494 342.48 275.088C352.653 263.581 361.559 245.95 364.82 231.031C366.134 225.038 365.988 212.394 364.577 206.488C361.121 192.05 352.993 178.706 338.149 163.219C335.861 160.813 327.247 152.544 318.973 144.844C310.747 137.144 302.133 128.831 299.845 126.381C290.063 115.794 282.859 104.594 280.767 96.5875C279.988 93.5688 279.307 93 276.386 93H274.001L273.271 95.275Z" fill="white"/>
<defs>
<filter id="filter0_d_2_13" x="0" y="0" width="508" height="508" filterUnits="userSpaceOnUse" color-interpolation-filters="sRGB">
<feFlood flood-opacity="0" result="BackgroundImageFix"/>
<feColorMatrix in="SourceAlpha" type="matrix" values="0 0 0 0 0 0 0 0 0 0 0 0 0 0 0 0 0 0 127 0" result="hardAlpha"/>
<feOffset dy="4"/>
<feGaussianBlur stdDeviation="2"/>
<feComposite in2="hardAlpha" operator="out"/>
<feColorMatrix type="matrix" values="0 0 0 0 0 0 0 0 0 0 0 0 0 0 0 0 0 0 0.25 0"/>
<feBlend mode="normal" in2="BackgroundImageFix" result="effect1_dropShadow_2_13"/>
<feBlend mode="normal" in="SourceGraphic" in2="effect1_dropShadow_2_13" result="shape"/>
</filter>
<filter id="filter1_d_2_13" x="138" y="214" width="124.55" height="79.6667" filterUnits="userSpaceOnUse" color-interpolation-filters="sRGB">
<feFlood flood-opacity="0" result="BackgroundImageFix"/>
<feColorMatrix in="SourceAlpha" type="matrix" values="0 0 0 0 0 0 0 0 0 0 0 0 0 0 0 0 0 0 127 0" result="hardAlpha"/>
<feOffset dy="4"/>
<feGaussianBlur stdDeviation="2"/>
<feComposite in2="hardAlpha" operator="out"/>
<feColorMatrix type="matrix" values="0 0 0 0 0 0 0 0 0 0 0 0 0 0 0 0 0 0 0.25 0"/>
<feBlend mode="normal" in2="BackgroundImageFix" result="effect1_dropShadow_2_13"/>
<feBlend mode="normal" in="SourceGraphic" in2="effect1_dropShadow_2_13" result="shape"/>
</filter>
</defs>
</svg>
